<?xml version="1.0" standalone="no"?>
<!DOCTYPE svg PUBLIC "-//W3C//DTD SVG 20010904//EN"
 "http://www.w3.org/TR/2001/REC-SVG-20010904/DTD/svg10.dtd">
<svg version="1.0" xmlns="http://www.w3.org/2000/svg"
 width="512.000000pt" height="512.000000pt" viewBox="0 0 512.000000 512.000000"
 preserveAspectRatio="xMidYMid meet">
<metadata>
Created by potrace 1.14, written by Peter Selinger 2001-2017
</metadata>
<g transform="translate(0.000000,512.000000) scale(0.100000,-0.100000)"
fill="#000000" stroke="none">
<path d="M2523 4473 c-13 -3 -32 -16 -43 -30 -19 -24 -20 -38 -17 -399 2 -373
2 -373 25 -396 31 -31 93 -31 124 0 23 23 23 23 24 390 1 285 -2 373 -12 393
-18 36 -53 51 -101 42z"/>
<path d="M1864 4389 c-28 -10 -64 -56 -64 -82 0 -18 40 -97 242 -475 22 -43
61 -115 85 -162 53 -100 68 -117 107 -124 53 -9 96 28 96 83 0 20 -4 41 -9 47
-5 5 -44 77 -86 159 -43 83 -97 186 -120 230 -23 44 -65 125 -94 180 -28 55
-57 108 -65 118 -18 23 -65 36 -92 26z"/>
<path d="M3164 4389 c-28 -10 -33 -18 -116 -179 -41 -80 -123 -238 -182 -353
-101 -195 -107 -209 -97 -239 16 -45 40 -68 72 -68 58 0 54 -6 196 270 251
485 245 471 239 505 -10 52 -63 82 -112 64z"/>
<path d="M3445 3714 c-124 -24 -258 -107 -330 -207 -15 -21 -30 -29 -64 -32
-184 -18 -326 -139 -347 -297 -5 -35 -13 -48 -40 -66 -19 -12 -48 -41 -64 -64
-17 -22 -30 -36 -30 -30 0 16 -98 112 -114 112 -9 0 -16 19 -20 52 -21 156
-161 273 -353 293 -24 3 -50 22 -105 78 -107 108 -213 153 -381 162 -129 7
-230 -29 -318 -114 -49 -48 -51 -48 -128 -54 -151 -10 -257 -105 -265 -237 -2
-40 -8 -54 -29 -71 -19 -14 -34 -44 -53 -107 -14 -48 -29 -90 -33 -94 -3 -4
-56 9 -116 28 -175 57 -269 47 -354 -37 -65 -65 -91 -121 -194 -434 -87 -265
-102 -320 -103 -379 -1 -92 10 -142 48 -196 41 -62 74 -81 214 -126 65 -21
120 -38 121 -39 2 -1 -9 -40 -25 -88 -26 -83 -28 -86 -72 -106 -92 -42 -169
-148 -172 -238 -5 -119 58 -230 162 -283 21 -11 110 -43 197 -71 87 -28 196
-64 243 -79 119 -39 731 -237 810 -262 36 -11 74 -24 85 -28 92 -37 197 -59
244 -54 52 7 131 46 169 85 92 92 111 235 45 348 l-26 44 17 56 c10 31 39 124
66 206 26 83 71 224 100 315 28 91 57 179 63 195 7 17 12 32 12 35 1 7 7 26
65 205 150 466 171 536 169 573 -3 49 7 68 27 51 10 -8 13 -22 9 -41 -4 -15
-2 -43 5 -62 6 -18 12 -42 14 -52 2 -10 11 -37 19 -59 9 -22 75 -222 147 -445
72 -223 154 -472 180 -555 27 -82 69 -211 93 -285 l44 -135 -33 -64 c-29 -58
-33 -73 -31 -136 2 -58 8 -81 33 -125 53 -95 154 -153 262 -152 43 0 110 20
587 177 55 18 242 78 415 134 383 124 517 169 550 186 41 22 98 87 121 140 29
64 30 173 3 231 -25 53 -95 121 -147 143 -41 18 -45 24 -70 92 -14 41 -27 80
-29 88 -2 9 32 25 109 51 159 53 205 87 247 182 37 83 30 171 -29 373 -138
474 -154 518 -220 588 -95 101 -180 113 -364 53 -62 -21 -116 -34 -120 -29 -4
4 -18 44 -31 88 -26 90 -44 125 -64 125 -9 0 -15 19 -20 56 -8 73 -35 122 -92
173 -54 47 -117 69 -192 65 -51 -3 -55 -1 -89 37 -95 105 -251 146 -428 113z
m1283 -808 c22 -26 44 -77 82 -198 29 -90 70 -217 92 -283 26 -78 42 -146 45
-196 5 -69 3 -77 -18 -102 -25 -28 -228 -111 -240 -98 -4 3 -18 42 -32 86 -14
44 -52 166 -85 270 -34 105 -83 260 -110 345 l-49 155 86 29 c103 34 160 45
182 35 9 -5 30 -24 47 -43z m-4093 -1 c44 -14 81 -27 82 -29 1 -1 -15 -56 -36
-122 -91 -278 -152 -467 -191 -594 -24 -74 -43 -136 -44 -137 -6 -8 -224 72
-240 87 -13 13 -20 36 -22 72 -4 55 3 82 91 363 24 77 56 180 71 229 20 64 37
101 61 127 49 55 77 55 228 4z"/>
</g>
</svg>
